inDegrees=yes
name=ik_S57_A01_T02
DataType=double
version=3
OpenSimVersion=4.3-2021-08-27-4bc7ad9
endheader
time	pelvis_tilt	pelvis_list	pelvis_rotation	pelvis_tx	pelvis_ty	pelvis_tz	hip_flexion_r	hip_adduction_r	hip_rotation_r	knee_angle_r	knee_angle_r_beta	ankle_angle_r	subtalar_angle_r	mtp_angle_r	hip_flexion_l	hip_adduction_l	hip_rotation_l	knee_angle_l	knee_angle_l_beta	ankle_angle_l	subtalar_angle_l	mtp_angle_l	lumbar_extension	lumbar_bending	lumbar_rotation	arm_flex_r	arm_add_r	arm_rot_r	elbow_flex_r	pro_sup_r	wrist_flex_r	wrist_dev_r	arm_flex_l	arm_add_l	arm_rot_l	elbow_flex_l	pro_sup_l	wrist_flex_l	wrist_dev_l
0	0	0	0	0	0.9399999999999999	0	0	0	0	0	0	0	0	0	0	0	0	0	0	0	0	0	0	0	0	0	0	0	0	89.99999999963507	0	0	0	0	0	0	89.99999999869995	0	0
0.04	0.9391252498625305	-1.026159028308109	-89.23326469525109	0	0.9399999999999999	0	-1.241644605254545	-0.4139775851199636	-0.481506818584259	0.426102645242192	0.007436894110933601	0	0	0	-1.812075435482729	-0.4054118295674096	1.594124588341095	0.9568956502674839	0.01670097969517975	0	0	0	0	0	0	1.875728999471374	-1.875728999471374	0.334576709432887	8.89564680513385	89.66542330985871	0	0	1.875728999471374	-1.875728999471374	0.334576709432887	8.89564680513385	89.66542330898631	0	0
0.06	0.9296123737910341	-1.003169937985983	-89.22994874939825	0	0.9399999999999999	0	-1.265697073435137	-0.4419922933604581	-0.5551960346058906	0.3909550423539512	0.00682345271635033	0	0	0	-1.787039130978438	-0.4306409911360252	1.637601703644039	0.9432779380575147	0.01646330578052676	0	0	0	0	0	0	1.991414881107925	-1.991414881107925	0.3559215735808064	9.127512014795281	89.64407844696576	0	0	1.991414881107925	-1.991414881107925	0.3559215735808064	9.127512014795281	89.64407844609738	0	0
0.08	0.9295369702815528	-0.9288235839843685	-89.20724224330992	0	0.9399999999999999	0	-1.200498362769684	-0.432307399385441	-0.5814882279893262	0.394681895958736	0.006888498582493645	0	0	0	-1.702331199389032	-0.4167231538496464	1.65777917590569	0.9590089473428964	0.01673786368721847	0	0	0	0	0	0	2.080382026449967	-2.080382026449967	0.3721216478710329	9.299714160320431	89.62787837362471	0	0	2.080382026449967	-2.080382026449967	0.3721216478710329	9.299714160320431	89.62787837275941	0	0
0.1	0.9308539351186715	-0.8645370674981561	-89.10161847930284	0	0.9399999999999999	0	-1.163527098581937	-0.4507731003571053	-0.7461120221100163	0.3897616268776519	0.006802623686944651	0	0	0	-1.626538076055668	-0.3705792060266376	1.790402525167161	1.001726110462994	0.01748341883077566	0	0	0	0	0	0	2.21463990573425	-2.21463990573425	0.3967761361474113	9.618042273011174	89.60322388679639	0	0	2.21463990573425	-2.21463990573425	0.3967761361474113	9.618042273011174	89.60322388593571	0	0
0.12	0.9556188422078181	-0.7950699722613651	-89.00243923439139	0	0.9399999999999999	0	-1.118607813076215	-0.5147177507507081	-0.927453560342357	0.4477509928839158	0.007814729054898032	0	0	0	-1.541103161505823	-0.3012210741868181	1.899099794253681	1.040435058106659	0.01815901741713973	0	0	0	0	0	0	2.783907229561598	-2.783907229561598	0.5012260110285622	11.62730796975329	89.49877401805038	0	0	2.783907229561598	-2.783907229561598	0.5012260110285622	11.62730796975329	89.49877401720933	0	0
0.14	0.9861030757571793	-0.6448366433793893	-88.74810841537723	0	0.9399999999999999	0	-1.058491898025832	-0.6819127086658626	-1.063749999777706	0.3415085442034724	0.005960448520043188	0	0	0	-1.346877454750596	-0.256656833715299	2.065590085536451	1.068054103791238	0.01864106070059436	0	0	0	0	0	0	2.788575674067523	-2.788575674067523	0.5021308282393343	11.66325388759993	89.49786920089359	0	0	2.788575674067523	-2.788575674067523	0.5021308282393343	11.66325388759993	89.4978692000527	0	0
0.16	1.008225635112749	-0.5014249532935654	-88.62121691376251	0	0.9399999999999999	0	-0.9947652666690313	-0.7786922994449912	-1.078262477530994	0.222269220033791	0.003879329715429394	0	0	0	-1.128268083495056	-0.1302234771801034	1.894762032700282	1.267443850278866	0.02212106827152027	0	0	0	0	0	0	2.79555269973593	-2.79555269973593	0.5034862156622787	11.71742534625023	89.49651381355152	0	0	2.79555269973593	-2.79555269973593	0.5034862156622787	11.71742534625023	89.49651381271097	0	0
0.18	1.002744501827897	-0.5059904237971398	-88.61841242907249	0	0.9399999999999999	0	-0.9968670420814572	-0.7733414594596021	-1.076527202040347	0.2375244985053047	0.004145584553065918	0	0	0	-1.127182358126508	-0.1358806954221456	1.881823215850928	1.370894092827142	0.02392661561597441	0	0	0	0	0	0	3.324725682014387	-3.324725682014387	0.6002962195760483	13.57189115028003	89.39970381532183	0	0	3.324725682014387	-3.324725682014387	0.6002962195760483	13.57189115028003	89.39970381449935	0	0
0.2	1.019724942042519	-0.4082588396902938	-88.49237266398352	0	0.9399999999999999	0	-1.014625814300294	-0.9576603317029647	-0.9194122667398764	0.109487794802481	0.001910922510051228	0	0	0	-0.8969767042732155	0.08073825301433701	1.660812438035753	1.609965843952585	0.02809920482162185	0	0	0	0	0	0	3.331046740200777	-3.331046740200777	0.6015163165095259	13.61710718907695	89.39848371846111	0	0	3.331046740200777	-3.331046740200777	0.6015163165095259	13.61710718907695	89.39848371763881	0	0
0.22	1.030114519705205	-0.3358010641084307	-88.35328405407249	0	0.9399999999999999	0	-1.049526669164302	-1.076293022788519	-1.276248286967459	0.04589195103544668	0.0008009656457325655	0	0	0	-0.7658802694490471	0.2498738586907504	1.767552264867415	1.822685303607887	0.03181185977567012	0	0	0	0	0	0	3.335736680461844	-3.335736680461844	0.6024182887244525	13.65012538436436	89.39758174629995	0	0	3.335736680461844	-3.335736680461844	0.6024182887244525	13.65012538436436	89.39758174547774	0	0
0.24	1.039712631368561	-0.1938631855956566	-88.29207198886242	0	0.9399999999999999	0	-0.9957840393556304	-1.230323644237063	-1.465406530676246	-0.007735263169832553	-0.0001350058108218314	0	0	0	-0.6117477052044897	0.2816085559418144	1.838959499123894	2.008770214952989	0.03505965416692389	0	0	0	0	0	0	3.341152254482648	-3.341152254482648	0.6034610532061599	13.68838490735632	89.39653898188035	0	0	3.341152254482648	-3.341152254482648	0.6034610532061599	13.68838490735632	89.39653898105836	0	0
0.26	1.069318502138802	-0.07315828378577084	-88.20315240817898	0	0.9399999999999999	0	-0.9754495560659766	-1.433396579700668	-1.732998201784421	-0.0353262658187359	-0.0006165596509716718	0	0	0	-0.4006776152395548	0.5432801911363726	1.990889284926578	2.242875559486188	0.03914556322554392	0	0	0	0	0	0	3.345866024894263	-3.345866024894263	0.604369589484213	13.7217715363437	89.39563044565644	0	0	3.345866024894263	-3.345866024894263	0.604369589484213	13.7217715363437	89.39563044483459	0	0
